<svg xmlns="http://www.w3.org/2000/svg" width="528" height="129" viewBox="0 0 528 129" fill="none">
    <path
        d="M314.671 112.395L315.032 112.049L314.671 112.395ZM316.925 108.372L317.286 108.027L316.925 108.372ZM317.922 113.747L317.672 113.315L317.922 113.747ZM298.286 77.7024L298.647 78.0481L298.286 77.7024ZM299.671 76.2546L299.31 75.9089L299.671 76.2546ZM301.119 76.2546L301.481 75.9089L301.119 76.2546ZM310.789 86.3579L310.428 86.7036L310.789 86.3579ZM310.789 87.8712L310.428 87.5255L310.789 87.8712ZM309.403 89.3189L309.764 89.6647L309.403 89.3189ZM307.955 89.3189L307.594 89.6647L307.955 89.3189ZM298.286 79.2157L297.924 79.5614L298.286 79.2157ZM285.642 92.28L285.281 91.9343L285.642 92.28ZM287.027 90.8323L287.389 91.178V91.178L287.027 90.8323ZM288.476 90.8323L288.115 91.178L288.476 90.8323ZM298.145 100.936L297.784 101.281L298.145 100.936ZM298.145 102.449L298.506 102.795H298.506L298.145 102.449ZM296.76 103.897L297.121 104.242L296.76 103.897ZM295.311 103.897L294.95 104.242L295.311 103.897ZM285.642 93.7934L286.003 93.4477L285.642 93.7934ZM280.569 117.088C280.292 117.088 280.069 117.312 280.069 117.588C280.069 117.864 280.292 118.088 280.569 118.088V117.088ZM306.183 118.088C306.459 118.088 306.683 117.864 306.683 117.588C306.683 117.312 306.459 117.088 306.183 117.088V118.088ZM284.165 113.33C283.889 113.33 283.665 113.554 283.665 113.83C283.665 114.106 283.889 114.33 284.165 114.33V113.33ZM302.695 114.33C302.971 114.33 303.195 114.106 303.195 113.83C303.195 113.554 302.971 113.33 302.695 113.33V114.33ZM327.5 98.5C327.5 114.516 314.516 127.5 298.5 127.5V128.5C315.069 128.5 328.5 115.069 328.5 98.5H327.5ZM298.5 127.5C282.484 127.5 269.5 114.516 269.5 98.5H268.5C268.5 115.069 281.931 128.5 298.5 128.5V127.5ZM269.5 98.5C269.5 82.4837 282.484 69.5 298.5 69.5V68.5C281.931 68.5 268.5 81.9315 268.5 98.5H269.5ZM298.5 69.5C314.516 69.5 327.5 82.4837 327.5 98.5H328.5C328.5 81.9315 315.069 68.5 298.5 68.5V69.5ZM297.805 99.7204C299.172 96.4352 300.387 94.2965 301.854 92.7765C303.309 91.2676 305.046 90.3339 307.526 89.526L307.216 88.5752C304.645 89.4128 302.742 90.4151 301.134 92.0822C299.537 93.7383 298.264 96.0157 296.882 99.3362L297.805 99.7204ZM298.197 82.1222C297.166 84.3621 296.255 85.8674 295.148 87.0218C294.045 88.1714 292.721 89.0021 290.819 89.8464L291.224 90.7604C293.194 89.8864 294.645 88.991 295.869 87.714C297.089 86.4419 298.056 84.8202 299.106 82.5402L298.197 82.1222ZM300.47 98.2796L314.31 112.741L315.032 112.049L301.192 97.5882L300.47 98.2796ZM317.286 108.027L303.917 94.0576L303.195 94.7491L316.564 108.718L317.286 108.027ZM318.172 114.18C318.736 113.855 319.057 113.362 319.182 112.799C319.304 112.254 319.238 111.662 319.08 111.098C318.764 109.971 318.034 108.808 317.286 108.027L316.564 108.718C317.217 109.4 317.852 110.423 318.117 111.368C318.249 111.839 318.279 112.254 318.206 112.582C318.137 112.893 317.975 113.139 317.672 113.315L318.172 114.18ZM314.31 112.741C314.774 113.225 315.347 113.78 315.976 114.121C316.622 114.47 317.398 114.628 318.172 114.18L317.672 113.315C317.302 113.528 316.915 113.492 316.452 113.241C315.973 112.982 315.492 112.53 315.032 112.049L314.31 112.741ZM298.647 78.0481L300.032 76.6003L299.31 75.9089L297.924 77.3566L298.647 78.0481ZM300.758 76.6003L310.428 86.7036L311.15 86.0121L301.481 75.9089L300.758 76.6003ZM310.428 87.5255L309.042 88.9732L309.764 89.6647L311.15 88.2169L310.428 87.5255ZM308.316 88.9732L298.647 78.87L297.924 79.5614L307.594 89.6647L308.316 88.9732ZM309.042 88.9732C308.839 89.1854 308.519 89.1854 308.316 88.9732L307.594 89.6647C308.19 90.2883 309.168 90.2883 309.764 89.6647L309.042 88.9732ZM310.428 86.7036C310.642 86.9281 310.642 87.3009 310.428 87.5255L311.15 88.2169C311.735 87.6057 311.735 86.6234 311.15 86.0121L310.428 86.7036ZM300.032 76.6003C300.235 76.3881 300.555 76.3881 300.758 76.6003L301.481 75.9089C300.884 75.2853 299.907 75.2853 299.31 75.9089L300.032 76.6003ZM297.924 77.3566C297.339 77.9679 297.339 78.9502 297.924 79.5614L298.647 78.87C298.432 78.6454 298.432 78.2726 298.647 78.0481L297.924 77.3566ZM286.003 92.6257L287.389 91.178L286.666 90.4866L285.281 91.9343L286.003 92.6257ZM288.115 91.178L297.784 101.281L298.506 100.59L288.837 90.4866L288.115 91.178ZM297.784 102.103L296.398 103.551L297.121 104.242L298.506 102.795L297.784 102.103ZM295.672 103.551L286.003 93.4477L285.281 94.1391L294.95 104.242L295.672 103.551ZM296.398 103.551C296.195 103.763 295.876 103.763 295.672 103.551L294.95 104.242C295.547 104.866 296.524 104.866 297.121 104.242L296.398 103.551ZM297.784 101.281C297.999 101.506 297.999 101.879 297.784 102.103L298.506 102.795C299.091 102.183 299.091 101.201 298.506 100.59L297.784 101.281ZM287.389 91.178C287.592 90.9658 287.912 90.9658 288.115 91.178L288.837 90.4866C288.24 89.863 287.263 89.863 286.666 90.4866L287.389 91.178ZM285.281 91.9343C284.696 92.5456 284.696 93.5279 285.281 94.1391L286.003 93.4477C285.788 93.2231 285.788 92.8503 286.003 92.6257L285.281 91.9343ZM280.569 118.088H306.183V117.088H280.569V118.088ZM284.165 114.33H302.695V113.33H284.165V114.33Z"
        fill="white" />
    <path
        d="M269.893 99.9466C268.869 99.9983 267.991 99.2096 268.002 98.1842C268.061 92.4245 269.751 86.7852 272.895 81.9284C276.375 76.5508 281.46 72.4055 287.429 70.0803C293.397 67.7552 299.947 67.3682 306.148 68.9744C312.349 70.5805 317.886 74.0982 321.976 79.0286C326.065 83.959 328.498 90.0517 328.931 96.4427C329.363 102.834 327.772 109.198 324.383 114.634C320.994 120.07 315.98 124.301 310.052 126.728C304.698 128.919 298.843 129.537 293.172 128.531C292.162 128.352 291.55 127.343 291.79 126.346C292.03 125.349 293.032 124.743 294.044 124.913C298.955 125.742 304.013 125.186 308.646 123.291C313.852 121.16 318.256 117.444 321.232 112.67C324.208 107.896 325.605 102.306 325.225 96.6932C324.846 91.0803 322.709 85.7294 319.118 81.3993C315.526 77.0693 310.662 73.9798 305.217 72.5693C299.771 71.1587 294.019 71.4985 288.777 73.5406C283.535 75.5826 279.069 79.2233 276.012 83.9461C273.293 88.148 271.812 93.0168 271.718 97.9965C271.699 99.0218 270.917 99.8948 269.893 99.9466Z"
        fill="#57D254" />
    <path
        d="M37.3691 35.5283L16.873 98H0.362305L28.3633 22.6406H38.8701L37.3691 35.5283ZM54.3975 98L33.8496 35.5283L32.1934 22.6406H42.8037L70.96 98H54.3975ZM53.4658 69.9473V82.1104H13.6641V69.9473H53.4658ZM113.76 84.5947V41.998H128.666V98H114.639L113.76 84.5947ZM115.416 73.1045L119.815 73.001C119.815 76.7275 119.384 80.1953 118.521 83.4043C117.659 86.5788 116.365 89.3392 114.639 91.6855C112.914 93.9974 110.74 95.8089 108.118 97.1201C105.496 98.3968 102.407 99.0352 98.8533 99.0352C96.1274 99.0352 93.6085 98.6556 91.2966 97.8965C89.0193 97.1029 87.0525 95.8779 85.3962 94.2217C83.7745 92.5309 82.4978 90.3743 81.5662 87.752C80.669 85.0951 80.2205 81.9033 80.2205 78.1768V41.998H95.1267V78.2803C95.1267 79.9365 95.3165 81.334 95.6961 82.4727C96.1101 83.6113 96.6795 84.543 97.4041 85.2676C98.1287 85.9922 98.974 86.5098 99.9402 86.8203C100.941 87.1309 102.045 87.2861 103.253 87.2861C106.324 87.2861 108.739 86.665 110.499 85.4229C112.293 84.1807 113.552 82.4899 114.277 80.3506C115.036 78.1768 115.416 75.7614 115.416 73.1045ZM167.428 87.3896C169.257 87.3896 170.879 87.0446 172.293 86.3545C173.708 85.6299 174.812 84.6292 175.606 83.3525C176.434 82.0413 176.865 80.5059 176.9 78.7461H190.926C190.892 82.6797 189.839 86.182 187.769 89.2529C185.699 92.2894 182.921 94.6875 179.436 96.4473C175.951 98.1725 172.052 99.0352 167.739 99.0352C163.391 99.0352 159.596 98.3105 156.352 96.8613C153.143 95.4121 150.469 93.4108 148.33 90.8574C146.19 88.2695 144.586 85.2676 143.516 81.8516C142.446 78.401 141.912 74.709 141.912 70.7754V69.2744C141.912 65.3063 142.446 61.6143 143.516 58.1982C144.586 54.7477 146.19 51.7458 148.33 49.1924C150.469 46.6045 153.143 44.5859 156.352 43.1367C159.561 41.6875 163.322 40.9629 167.635 40.9629C172.224 40.9629 176.244 41.8428 179.695 43.6025C183.18 45.3623 185.906 47.8812 187.873 51.1592C189.874 54.4027 190.892 58.25 190.926 62.7012H176.9C176.865 60.8379 176.469 59.1471 175.709 57.6289C174.985 56.1107 173.915 54.903 172.501 54.0059C171.12 53.0742 169.412 52.6084 167.376 52.6084C165.203 52.6084 163.426 53.0742 162.045 54.0059C160.665 54.903 159.596 56.1452 158.836 57.7324C158.077 59.2852 157.542 61.0622 157.232 63.0635C156.956 65.0303 156.818 67.1006 156.818 69.2744V70.7754C156.818 72.9492 156.956 75.0368 157.232 77.0381C157.508 79.0394 158.026 80.8164 158.785 82.3691C159.578 83.9219 160.665 85.1468 162.045 86.0439C163.426 86.9411 165.22 87.3896 167.428 87.3896ZM231.241 41.998V52.5566H198.634V41.998H231.241ZM206.708 28.1787H221.615V81.127C221.615 82.7487 221.822 83.9909 222.236 84.8535C222.684 85.7161 223.34 86.32 224.202 86.665C225.065 86.9756 226.152 87.1309 227.463 87.1309C228.395 87.1309 229.223 87.0964 229.948 87.0273C230.707 86.9238 231.345 86.8203 231.863 86.7168L231.914 97.6895C230.638 98.1035 229.257 98.4313 227.774 98.6729C226.29 98.9144 224.651 99.0352 222.857 99.0352C219.579 99.0352 216.715 98.5003 214.265 97.4307C211.85 96.3265 209.986 94.5667 208.675 92.1514C207.364 89.736 206.708 86.5615 206.708 82.6279V28.1787ZM259.704 41.998V98H244.746V41.998H259.704ZM243.814 27.4023C243.814 25.2285 244.574 23.4342 246.092 22.0195C247.61 20.6048 249.646 19.8975 252.199 19.8975C254.718 19.8975 256.737 20.6048 258.255 22.0195C259.808 23.4342 260.584 25.2285 260.584 27.4023C260.584 29.5762 259.808 31.3704 258.255 32.7852C256.737 34.1999 254.718 34.9072 252.199 34.9072C249.646 34.9072 247.61 34.1999 246.092 32.7852C244.574 31.3704 243.814 29.5762 243.814 27.4023ZM352.131 53.9541V98H337.225V41.998H351.2L352.131 53.9541ZM349.957 68.0322H345.92C345.92 63.8916 346.455 60.165 347.525 56.8525C348.594 53.5055 350.095 50.6589 352.028 48.3125C353.96 45.9316 356.255 44.1201 358.911 42.8779C361.603 41.6012 364.605 40.9629 367.917 40.9629C370.54 40.9629 372.938 41.3424 375.112 42.1016C377.285 42.8607 379.149 44.0684 380.701 45.7246C382.289 47.3809 383.496 49.5719 384.325 52.2979C385.187 55.0238 385.618 58.3535 385.618 62.2871V98H370.609V62.2354C370.609 59.751 370.264 57.8187 369.574 56.4385C368.883 55.0583 367.866 54.0921 366.52 53.54C365.209 52.9535 363.587 52.6602 361.655 52.6602C359.653 52.6602 357.911 53.057 356.427 53.8506C354.978 54.6442 353.77 55.7484 352.804 57.1631C351.872 58.5433 351.165 60.165 350.682 62.0283C350.199 63.8916 349.957 65.8929 349.957 68.0322ZM449.272 22.6406V98H433.797V22.6406H449.272ZM500.198 22.6406V98H484.722V22.6406H500.198ZM523.385 22.6406V34.8037H461.897V22.6406H523.385Z"
        fill="white" />
</svg>