<svg width="323" height="72" fill="none" xmlns="http://www.w3.org/2000/svg">
    <path
        d="m190.545 62.272.361-.346-.361.346Zm1.261-2.25.361-.346-.361.346Zm.557 3.006-.25-.433.25.433Zm-10.983-20.16.361.345-.361-.346Zm.775-.81-.361-.346.361.346Zm.81 0 .361-.346-.361.346Zm5.408 5.65-.361.346.361-.345Zm0 .847-.361-.346.361.346Zm-.775.81.362.346-.362-.346Zm-.81 0-.361.346.361-.346Zm-5.408-5.651-.361.346.361-.346Zm-7.072 7.307-.361-.346.361.346Zm.775-.81.361.346-.361-.346Zm.81 0-.361.346.361-.346Zm5.409 5.651-.362.346.362-.346Zm0 .847.361.345-.361-.345Zm-.775.81.361.345-.361-.345Zm-.811 0-.361.345.361-.345Zm-5.408-5.651.361-.346-.361.346Zm-2.837 12.809a.5.5 0 1 0 0 1v-1Zm14.326 1a.5.5 0 0 0 0-1v1Zm-12.315-3.103a.5.5 0 0 0 0 1v-1Zm10.364 1a.5.5 0 0 0 0-1v1ZM197.5 54.5c0 8.837-7.163 16-16 16v1c9.389 0 17-7.611 17-17h-1Zm-16 16c-8.837 0-16-7.163-16-16h-1c0 9.389 7.611 17 17 17v-1Zm-16-16c0-8.837 7.163-16 16-16v-1c-9.389 0-17 7.611-17 17h1Zm16-16c8.837 0 16 7.163 16 16h1c0-9.389-7.611-17-17-17v1Zm-.185 16.767c.761-1.83 1.428-2.995 2.219-3.815.781-.81 1.716-1.317 3.083-1.762l-.31-.95c-1.458.474-2.559 1.05-3.492 2.017-.923.957-1.647 2.261-2.424 4.126l.924.384Zm-.185-10.02c-.572 1.244-1.07 2.06-1.664 2.68-.59.615-1.302 1.066-2.352 1.531l.406.915c1.116-.496 1.956-1.011 2.668-1.753.707-.738 1.26-1.67 1.851-2.955l-.909-.418Zm1.313 9.282 7.741 8.088.722-.691-7.741-8.088-.722.691Zm9.724 5.147-7.478-7.813-.722.691 7.477 7.813.723-.691Zm.446 3.785c.373-.215.588-.545.67-.915.079-.353.034-.723-.06-1.06-.188-.67-.617-1.351-1.056-1.81l-.723.691c.344.36.679.902.816 1.39.068.243.077.436.047.572a.378.378 0 0 1-.194.266l.5.866Zm-2.429-.844c.26.272.601.605.986.814.401.217.921.332 1.443.03l-.5-.866c-.117.068-.248.075-.467-.044-.235-.127-.483-.357-.74-.625l-.722.691Zm-8.443-19.404.775-.81-.722-.691-.775.81.722.691Zm.863-.81 5.408 5.651.723-.691-5.409-5.651-.722.691Zm5.408 5.806-.775.81.723.692.775-.81-.723-.692Zm-.862.81-5.409-5.65-.722.69 5.408 5.652.723-.692Zm.087 0c-.016.017-.031.021-.044.021-.012 0-.027-.004-.043-.02l-.723.69c.421.44 1.112.44 1.533 0l-.723-.69Zm.775-.965a.112.112 0 0 1 .029.078c0 .033-.012.06-.029.077l.723.692a1.12 1.12 0 0 0 0-1.538l-.723.691Zm-5.496-5.65a.06.06 0 0 1 .044-.022.06.06 0 0 1 .044.021l.722-.691a1.055 1.055 0 0 0-1.532 0l.722.691Zm-1.497.118a1.117 1.117 0 0 0 0 1.538l.722-.692a.112.112 0 0 1-.029-.077c0-.033.012-.06.029-.078l-.722-.691Zm-6.35 8.845.775-.81-.722-.691-.775.81.722.69Zm.863-.81 5.408 5.651.723-.691-5.409-5.651-.722.691Zm5.408 5.806-.775.81.723.691.775-.81-.723-.691Zm-.862.81-5.409-5.651-.722.691 5.408 5.651.723-.691Zm.087 0c-.016.017-.031.02-.044.02-.012 0-.027-.003-.043-.02l-.723.691c.421.44 1.112.44 1.533 0l-.723-.691Zm.775-.965a.111.111 0 0 1 .029.078c0 .032-.012.06-.029.077l.723.691a1.12 1.12 0 0 0 0-1.538l-.723.692Zm-5.496-5.651a.06.06 0 0 1 .044-.021c.013 0 .028.004.044.021l.722-.691a1.055 1.055 0 0 0-1.532 0l.722.691Zm-1.497.118a1.117 1.117 0 0 0 0 1.538l.722-.691a.112.112 0 0 1-.029-.078c0-.033.012-.06.029-.077l-.722-.692Zm-2.476 15.002h14.326v-1h-14.326v1Zm2.011-2.103h10.364v-1h-10.364v1Z"
        fill="#fff" />
    <path
        d="M165.086 55.33c-.587.03-1.091-.423-1.085-1.011a17.503 17.503 0 0 1 11.147-16.125 17.498 17.498 0 0 1 21.203 25.563 17.498 17.498 0 0 1-17.908 7.974c-.579-.103-.931-.682-.793-1.254s.713-.92 1.293-.822a15.369 15.369 0 1 0-12.81-15.444c-.011.588-.459 1.09-1.047 1.119Z"
        fill="#57D254" />
    <path
        d="M22.563 21.281 10.188 59H.217l16.907-45.5h6.344l-.907 7.781ZM32.843 59 20.438 21.281l-1-7.781h6.407l17 45.5h-10Zm-.562-16.938v7.344H8.25v-7.343h24.031Zm36.404 8.844V25.188h9V59h-8.469l-.531-8.094Zm1-6.937 2.656-.063c0 2.25-.26 4.344-.781 6.282-.52 1.916-1.302 3.583-2.344 5a10.952 10.952 0 0 1-3.937 3.28c-1.584.772-3.448 1.157-5.594 1.157-1.646 0-3.167-.23-4.563-.688a9.289 9.289 0 0 1-3.562-2.218c-.98-1.021-1.75-2.323-2.313-3.907-.541-1.604-.812-3.53-.812-5.78V25.187h9v21.906c0 1 .115 1.843.344 2.531.25.688.593 1.25 1.031 1.688.438.437.948.75 1.531.937.604.188 1.271.281 2 .281 1.854 0 3.313-.375 4.375-1.125 1.084-.75 1.844-1.77 2.282-3.062.458-1.313.687-2.771.687-4.375Zm31.404 8.625c1.104 0 2.083-.209 2.937-.625.854-.438 1.521-1.042 2-1.813.5-.791.761-1.718.782-2.781h8.468c-.021 2.375-.656 4.49-1.906 6.344-1.25 1.833-2.927 3.281-5.031 4.343-2.104 1.042-4.459 1.563-7.063 1.563-2.625 0-4.916-.438-6.875-1.313-1.937-.874-3.552-2.083-4.843-3.624-1.292-1.563-2.26-3.376-2.907-5.438-.646-2.083-.968-4.313-.968-6.688v-.906c0-2.396.322-4.625.968-6.687.646-2.084 1.615-3.896 2.907-5.438 1.291-1.562 2.906-2.781 4.843-3.656 1.938-.875 4.209-1.313 6.813-1.313 2.771 0 5.198.532 7.281 1.594 2.104 1.063 3.75 2.584 4.938 4.563 1.208 1.958 1.822 4.281 1.843 6.968h-8.468c-.021-1.124-.261-2.145-.719-3.062a5.188 5.188 0 0 0-1.938-2.188c-.833-.562-1.864-.843-3.093-.843-1.313 0-2.386.281-3.22.843-.833.542-1.478 1.292-1.937 2.25-.458.938-.781 2.01-.968 3.22a26.98 26.98 0 0 0-.25 3.75v.906c0 1.312.083 2.572.25 3.78.166 1.21.479 2.282.937 3.22.48.937 1.135 1.677 1.969 2.218.833.542 1.916.813 3.25.813Zm38.529-27.407v6.375H119.93v-6.375h19.688Zm-14.813-8.343h9v31.968c0 .98.125 1.73.375 2.25.271.521.667.886 1.188 1.094.52.188 1.177.282 1.968.282.563 0 1.063-.021 1.5-.063.459-.063.844-.125 1.157-.188l.031 6.626c-.771.25-1.604.447-2.5.593-.896.146-1.886.219-2.969.219-1.979 0-3.708-.323-5.187-.969-1.459-.666-2.584-1.729-3.375-3.187-.792-1.459-1.188-3.375-1.188-5.75V16.844Zm31.998 8.343V59h-9.032V25.187h9.032Zm-9.594-8.812c0-1.313.458-2.396 1.375-3.25.916-.854 2.146-1.281 3.687-1.281 1.521 0 2.74.427 3.657 1.281.937.854 1.406 1.938 1.406 3.25 0 1.313-.469 2.396-1.406 3.25-.917.854-2.136 1.281-3.657 1.281-1.541 0-2.771-.427-3.687-1.281-.917-.854-1.375-1.938-1.375-3.25Zm65.398 16.031V59h-9V25.187h8.438l.562 7.22Zm-1.312 8.5h-2.438c0-2.5.323-4.75.969-6.75.646-2.02 1.552-3.74 2.719-5.156 1.167-1.438 2.552-2.531 4.156-3.281 1.625-.771 3.438-1.157 5.438-1.157 1.583 0 3.031.23 4.343.688a8.305 8.305 0 0 1 3.375 2.188c.959 1 1.688 2.322 2.188 3.968.521 1.646.781 3.657.781 6.032V59h-9.062V37.406c0-1.5-.209-2.666-.625-3.5-.417-.833-1.032-1.416-1.844-1.75-.792-.354-1.771-.531-2.938-.531-1.208 0-2.26.24-3.156.719a6.267 6.267 0 0 0-2.187 2c-.563.833-.99 1.812-1.282 2.937a14.436 14.436 0 0 0-.437 3.625ZM271.259 13.5V59h-9.344V13.5h9.344Zm30.747 0V59h-9.343V13.5h9.343Zm14 0v7.344h-37.125V13.5h37.125Z"
        fill="#fff" />
</svg>